# xmcd
#
# Track frame offsets:
#	150
#	21641
#	38721
#	56938
#	72501
#	88955
#	102209
#	119401
#	135833
#	150938
#	167615
#	185577
#	204226
#	220719
#	236072
#
# Disc length: 3386 seconds
#
# Revision: 1
# Processed by: cddbd v1.5.2PL0 Copyright (c) Steve Scherf et al.
# Submitted via: audiograbber 1.83.01
#
DISCID=d10d380f
DTITLE=Chartbuster Country Monthly - March 2007 - CB60361
DYEAR=2007
DGENRE=Karaoke
TTITLE0=McGraw, Tim - Last Dollar (Fly Away)
TTITLE1=Rascal Flatts - Stand
TTITLE2=Britt, Catherine - What I Did Last Night
TTITLE3=Morgan, Craig - Tough
TTITLE4=Covington, Bucky - A Different World
TTITLE5=Chapman, Donovan - House Like That
TTITLE6=Swift, Taylor - Teardrops On My Guitar
TTITLE7=Deggs, Cole and The Lonesome - I Got More
TTITLE8=Church, Eric - Guys Like Me
TTITLE9=Anderson, John - A Woman Knows
TTITLE10=Wreckers - The Good Kind
TTITLE11=Lonestar - Nothing To Prove
TTITLE12=Wills, Mark - Take It All Out On Me
TTITLE13=Carson, Jeff - When You Said You Loved Me
TTITLE14=Trevino, Rick - Separate Ways
EXTD=
EXTT0=
EXTT1=
EXTT2=
EXTT3=
EXTT4=
EXTT5=
EXTT6=
EXTT7=
EXTT8=
EXTT9=
EXTT10=
EXTT11=
EXTT12=
EXTT13=
EXTT14=
PLAYORDER=
